<svg width="29" height="29" viewBox="0 0 29 29" fill="none" xmlns="http://www.w3.org/2000/svg">
<path d="M25.375 14.5C25.375 12.2277 24.6632 10.0126 23.3397 8.16556C22.0162 6.31856 20.1473 4.93253 17.9957 4.20213C15.844 3.47174 13.5176 3.43367 11.3432 4.09327C9.16874 4.75288 7.25555 6.07701 5.87228 7.87972C4.48902 9.68242 3.70517 11.8731 3.63082 14.1442C3.55648 16.4152 4.19537 18.6525 5.45777 20.5418C6.72017 22.4311 8.54266 23.8776 10.6693 24.678C12.7959 25.4784 15.1198 25.5925 17.3147 25.0044" stroke="#979797" stroke-width="2" stroke-linecap="round"/>
<circle cx="14.5" cy="14.5" r="4.83333" stroke="#979797" stroke-width="2"/>
<path d="M19.3333 10.875V16.3125C19.3333 17.9809 20.6858 19.3333 22.3542 19.3333V19.3333C24.0225 19.3333 25.375 17.9809 25.375 16.3125V14.5" stroke="#979797" stroke-width="2" stroke-linecap="round"/>
</svg>
