<svg width="40" height="40" viewBox="0 0 40 40" fill="none" xmlns="http://www.w3.org/2000/svg">
<path fill-rule="evenodd" clip-rule="evenodd" d="M21.4821 11.8512L25.5049 7.82837C26.8382 6.49504 27.5049 5.82837 28.3333 5.82837C29.1617 5.82837 29.8284 6.49504 31.1617 7.82837L32.1716 8.83818C33.5049 10.1715 34.1716 10.8382 34.1716 11.6666C34.1716 12.495 33.5049 13.1617 32.1716 14.495L28.1851 18.4815C25.4167 16.8714 23.1123 14.5842 21.4821 11.8512ZM20.0278 13.3054L7.52303 25.8102C7.09797 26.2353 6.88544 26.4478 6.74571 26.7089C6.60597 26.97 6.54703 27.2647 6.42914 27.8542L5.14707 34.2645C5.08055 34.5971 5.04729 34.7634 5.1419 34.858C5.2365 34.9526 5.4028 34.9194 5.73538 34.8529L5.7354 34.8529L5.73542 34.8529L12.1457 33.5708C12.7352 33.4529 13.0299 33.394 13.291 33.2542C13.5521 33.1145 13.7646 32.902 14.1897 32.4769L26.7271 19.9395C24.0094 18.2652 21.7194 15.9912 20.0278 13.3054Z" fill="white"/>
</svg>
