<svg width="31" height="31" viewBox="0 0 31 31" fill="none" xmlns="http://www.w3.org/2000/svg">
<path d="M5.16669 15.625C5.16669 13.7394 5.16669 12.7966 5.75247 12.2108C6.33826 11.625 7.28107 11.625 9.16669 11.625H21.8334C23.719 11.625 24.6618 11.625 25.2476 12.2108C25.8334 12.7966 25.8334 13.7394 25.8334 15.625V21.125C25.8334 23.9534 25.8334 25.3676 24.9547 26.2463C24.076 27.125 22.6618 27.125 19.8334 27.125H11.1667C8.33826 27.125 6.92405 27.125 6.04537 26.2463C5.16669 25.3676 5.16669 23.9534 5.16669 21.125V15.625Z" stroke="#B7B7B7"/>
<path d="M20.6667 10.3333V9.04167C20.6667 8.88692 20.6667 8.80955 20.665 8.74411C20.5954 6.0853 18.4564 3.94634 15.7976 3.87671C15.7322 3.875 15.6548 3.875 15.5 3.875V3.875C15.3453 3.875 15.2679 3.875 15.2025 3.87671C12.5437 3.94634 10.4047 6.0853 10.3351 8.74411C10.3334 8.80955 10.3334 8.88692 10.3334 9.04167V10.3333" stroke="#B7B7B7" stroke-linecap="round"/>
<circle cx="15.5" cy="19.375" r="2.58333" fill="#B7B7B7"/>
</svg>
