<svg width="46" height="46" viewBox="0 0 46 46" fill="none" xmlns="http://www.w3.org/2000/svg">
<path d="M7.6665 32.6667V21.6319C7.6665 21.4181 7.89142 21.2791 8.08258 21.3747L20.4284 27.5476C22.0471 28.357 23.9525 28.357 25.5713 27.5476L37.9171 21.3747C38.1083 21.2791 38.3332 21.4181 38.3332 21.6319V32.6667C38.3332 34.7838 36.6169 36.5 34.4998 36.5H11.4998C9.38275 36.5 7.6665 34.7838 7.6665 32.6667Z" fill="#959595"/>
<path d="M7.6665 15.3334V17.0724C7.6665 17.1813 7.72803 17.2808 7.82543 17.3295L20.4284 23.631C22.0471 24.4404 23.9525 24.4404 25.5713 23.631L38.1742 17.3295C38.2716 17.2808 38.3332 17.1813 38.3332 17.0724V15.3334C38.3332 13.2163 36.6169 11.5001 34.4998 11.5001H11.4998C9.38275 11.5001 7.6665 13.2163 7.6665 15.3334Z" fill="#B7B7B7"/>
</svg>
