<svg width="35" height="35" viewBox="0 0 35 35" fill="none" xmlns="http://www.w3.org/2000/svg">
<path d="M10.2083 10.4007V7.52866C10.2083 5.38277 10.2083 4.30982 10.8979 3.71174C11.5875 3.11365 12.6497 3.26539 14.774 3.56887L25.4735 5.09737C27.9296 5.44824 29.1577 5.62368 29.8913 6.46957C30.625 7.31547 30.625 8.556 30.625 11.0371V23.9628C30.625 26.4439 30.625 27.6845 29.8913 28.5303C29.1577 29.3762 27.9296 29.5517 25.4735 29.9025L14.774 31.4311C12.6497 31.7345 11.5875 31.8863 10.8979 31.2882C10.2083 30.6901 10.2083 29.6171 10.2083 27.4713V24.8878" stroke="white"/>
<path d="M23.3333 17.5L23.7237 17.1877L23.9736 17.5L23.7237 17.8124L23.3333 17.5ZM5.83331 18C5.55717 18 5.33331 17.7762 5.33331 17.5C5.33331 17.2239 5.55717 17 5.83331 17V18ZM17.8904 9.89603L23.7237 17.1877L22.9429 17.8124L17.1095 10.5207L17.8904 9.89603ZM23.7237 17.8124L17.8904 25.1041L17.1095 24.4794L22.9429 17.1877L23.7237 17.8124ZM23.3333 18H5.83331V17H23.3333V18Z" fill="white"/>
</svg>
