<svg width="39" height="40" viewBox="0 0 39 40" fill="none" xmlns="http://www.w3.org/2000/svg">
<g filter="url(#filter0_d_14_238)">
<path d="M4.91669 17.5L4.52625 17.1876L4.27637 17.5L4.52625 17.8123L4.91669 17.5ZM18.0417 18C18.3178 18 18.5417 17.7761 18.5417 17.5C18.5417 17.2238 18.3178 17 18.0417 17V18ZM10.3596 9.89597L4.52625 17.1876L5.30712 17.8123L11.1405 10.5207L10.3596 9.89597ZM4.52625 17.8123L10.3596 25.104L11.1405 24.4793L5.30712 17.1876L4.52625 17.8123ZM4.91669 18H18.0417V17H4.91669V18Z" fill="#1E8E44"/>
<path d="M16.5833 11.8591V9.22186C16.5833 7.60352 16.5833 6.79435 17.0573 6.23486C17.5312 5.67537 18.3294 5.54234 19.9257 5.27629L27.0969 4.08109C30.34 3.54057 31.9616 3.27031 33.0224 4.16901C34.0833 5.0677 34.0833 6.71162 34.0833 9.99945V25.0006C34.0833 28.2884 34.0833 29.9323 33.0224 30.831C31.9616 31.7297 30.34 31.4595 27.0969 30.919L19.9257 29.7238C18.3294 29.4577 17.5312 29.3247 17.0573 28.7652C16.5833 28.2057 16.5833 27.3965 16.5833 25.7782V23.4296" stroke="#1E8E44"/>
</g>
<defs>
<filter id="filter0_d_14_238" x="-2" y="0" width="43" height="43" filterUnits="userSpaceOnUse" color-interpolation-filters="sRGB">
<feFlood flood-opacity="0" result="BackgroundImageFix"/>
<feColorMatrix in="SourceAlpha" type="matrix" values="0 0 0 0 0 0 0 0 0 0 0 0 0 0 0 0 0 0 127 0" result="hardAlpha"/>
<feOffset dy="4"/>
<feGaussianBlur stdDeviation="2"/>
<feComposite in2="hardAlpha" operator="out"/>
<feColorMatrix type="matrix" values="0 0 0 0 0 0 0 0 0 0 0 0 0 0 0 0 0 0 0.25 0"/>
<feBlend mode="normal" in2="BackgroundImageFix" result="effect1_dropShadow_14_238"/>
<feBlend mode="normal" in="SourceGraphic" in2="effect1_dropShadow_14_238" result="shape"/>
</filter>
</defs>
</svg>
