<svg width="39" height="39" viewBox="0 0 39 39" fill="none" xmlns="http://www.w3.org/2000/svg">
<circle cx="16.25" cy="13" r="8.125" fill="white"/>
<path d="M30.875 16.25L30.875 26" stroke="white" stroke-width="2" stroke-linecap="round"/>
<path d="M35.75 21.125L26 21.125" stroke="white" stroke-width="2" stroke-linecap="round"/>
<path d="M28.1888 33.0463C28.7598 32.9169 29.1016 32.3245 28.866 31.7884C27.9874 29.7896 26.4581 28.0324 24.4431 26.7256C22.0926 25.2013 19.2127 24.375 16.25 24.375C13.2873 24.375 10.4074 25.2012 8.05693 26.7256C6.04194 28.0324 4.51259 29.7896 3.63397 31.7884C3.39836 32.3244 3.74015 32.9169 4.31119 33.0463L7.41505 33.7492C13.2314 35.0664 19.2686 35.0664 25.0849 33.7492L28.1888 33.0463Z" fill="white"/>
</svg>
